<svg xmlns="http://www.w3.org/2000/svg" xmlns:xlink="http://www.w3.org/1999/xlink" width="40" height="47" viewBox="0 0 40 47">
    <defs>
        <path id="a" d="M10.116.596v7.688H.29V.596h9.826z"/>
        <path id="c" d="M32.116.773v1.6H0v-1.6h32.116z"/>
    </defs>
    <g fill="none" fill-rule="evenodd">
        <path fill="#D1232A" d="M15.59 18.545a.792.792 0 0 1-.324-.068c-.079-.036-1.925-.886-1.925-3.55 0-1.235.606-1.924 1.093-2.478.462-.526.828-.942.828-1.873 0-1.53-1.097-2.042-1.108-2.047a.8.8 0 1 1 .657-1.46c.084.039 2.05.954 2.05 3.507 0 1.534-.679 2.308-1.226 2.93-.418.476-.694.79-.694 1.422 0 1.608.964 2.082.974 2.086a.798.798 0 0 1 .406 1.055.798.798 0 0 1-.73.476M19.495 18.545a.792.792 0 0 1-.324-.068c-.079-.036-1.925-.886-1.925-3.55 0-1.235.606-1.924 1.093-2.478.462-.526.828-.942.828-1.873 0-1.53-1.097-2.042-1.108-2.047a.8.8 0 1 1 .657-1.46c.084.039 2.05.954 2.05 3.507 0 1.534-.679 2.308-1.226 2.93-.418.476-.694.79-.694 1.422 0 1.608.964 2.082.974 2.086a.798.798 0 0 1 .406 1.055.798.798 0 0 1-.73.476M23.4 18.545a.792.792 0 0 1-.324-.068c-.079-.036-1.925-.886-1.925-3.55 0-1.235.606-1.924 1.093-2.478.462-.526.828-.942.828-1.873 0-1.53-1.097-2.042-1.108-2.047a.8.8 0 1 1 .657-1.46c.084.039 2.05.954 2.05 3.507 0 1.534-.679 2.308-1.226 2.93-.418.476-.694.79-.694 1.422 0 1.608.964 2.082.974 2.086a.798.798 0 0 1 .406 1.055.798.798 0 0 1-.73.476M14.128 33.668a.791.791 0 0 1-.33-.071c-.14-.064-3.462-1.606-4.496-5.106-.977-3.307-.484-7.707-.463-7.892a.8.8 0 0 1 .795-.708h17.578a.8.8 0 1 1 0 1.599H10.368c-.094 1.335-.198 4.292.468 6.548.83 2.806 3.595 4.089 3.623 4.102a.799.799 0 0 1-.33 1.528"/>
        <path fill="#D1232A" d="M24.087 33.668a.8.8 0 0 1-.333-1.527c.045-.022 2.805-1.327 3.625-4.103.667-2.261.562-5.214.468-6.548H14.482a.8.8 0 1 1 0-1.6H28.58a.8.8 0 0 1 .795.709c.02.185.514 4.585-.463 7.892-1.034 3.5-4.355 5.042-4.496 5.106a.791.791 0 0 1-.33.07"/>
        <g transform="translate(25 19.295)">
            <mask id="b" fill="#fff">
                <use xlink:href="#a"/>
            </mask>
            <path fill="#D1232A" d="M6.368 8.284h-2.65a.8.8 0 1 1 0-1.6h2.65c.02 0 2.149-.135 2.149-2.31 0-2.117-2.21-2.179-2.462-2.179H1.09a.8.8 0 1 1 0-1.599h4.965c1.405 0 4.062.79 4.062 3.778 0 2.954-2.526 3.91-3.75 3.91" mask="url(#b)"/>
        </g>
        <g transform="translate(3 31.295)">
            <mask id="d" fill="#fff">
                <use xlink:href="#c"/>
            </mask>
            <path fill="#D1232A" d="M31.316 2.373H.8a.8.8 0 0 1 0-1.6h30.517a.8.8 0 0 1 0 1.6" mask="url(#d)"/>
        </g>
        <path fill="#D1232A" d="M14.093 38.295c-1.883 0-3.446-.18-4.72-1.028-2.174-1.45-2.972-4.06-3.006-4.17a.798.798 0 0 1 .537-.993.798.798 0 0 1 .996.534c.006.02.676 2.175 2.36 3.297 1.285.857 3.192.798 5.83.717a88.016 88.016 0 0 1 2.751-.053h.493c.986 0 1.902.027 2.751.053 2.64.082 4.545.14 5.83-.717 1.683-1.122 2.353-3.276 2.36-3.297a.8.8 0 0 1 1.532.459c-.033.11-.832 2.72-3.005 4.17-1.71 1.14-3.942 1.07-6.766.985-.835-.025-1.734-.054-2.702-.054h-.493c-.969 0-1.868.029-2.702.054-.72.022-1.402.043-2.046.043"/>
    </g>
</svg>
