<svg xmlns="http://www.w3.org/2000/svg" xmlns:xlink="http://www.w3.org/1999/xlink" width="40" height="47" viewBox="0 0 40 47">
    <defs>
        <path id="a" d="M4.112 34h3.3V.315h-6.6V34h3.3z"/>
    </defs>
    <g fill="none" fill-rule="evenodd">
        <path fill="#D1232A" d="M14.604 42.682c-2.098-.084-2.835-1.67-2.835-2.715l.727-15.472C10.993 24.143 10 22.95 10 21.383c0-1.57.588-10.952.613-11.35a.812.812 0 0 1 .848-.749.8.8 0 0 1 .748.848c-.005.098-.609 9.731-.609 11.251 0 1.487 1.462 1.61 1.754 1.617a.8.8 0 0 1 .774.837l-.76 16.167c.009.278.146 1.034 1.236 1.08 1.024-.046 1.162-.803 1.17-1.127l-.759-16.12a.8.8 0 0 1 .774-.837c.293-.008 1.754-.13 1.754-1.617 0-1.52-.604-11.153-.609-11.25a.8.8 0 0 1 .748-.849.805.805 0 0 1 .848.75c.025.397.613 9.78.613 11.35 0 1.565-.993 2.76-2.496 3.111l.727 15.435c0 1.082-.738 2.668-2.77 2.752"/>
        <path fill="#D1232A" d="M13.445 18.183a.8.8 0 0 1-.8-.8V10.15a.8.8 0 1 1 1.6 0v7.234a.8.8 0 0 1-.8.8M15.69 18.183a.8.8 0 0 1-.8-.8V10.15a.8.8 0 1 1 1.6 0v7.234a.8.8 0 0 1-.8.8"/>
        <g transform="translate(21 8.685)">
            <mask id="b" fill="#fff">
                <use xlink:href="#a"/>
            </mask>
            <path fill="#D1232A" d="M5.813 2.082c-2.542.757-3.4 3.509-3.4 4.491v11.875c0 .454 1.097.993 1.884 1.181.396.094.66.471.61.874-.01.075-.91 7.554-.829 10.129.037 1.181 1.006 1.576 1.734 1.706V2.082zM6.522 34c-.465 0-2.01-.079-3.071-1.068-.608-.567-.945-1.345-.973-2.249-.07-2.257.538-7.78.761-9.705-.929-.337-2.428-1.101-2.428-2.53V6.573c0-1.52 1.356-5.827 5.723-6.254a.792.792 0 0 1 .614.203.804.804 0 0 1 .263.593v32.083a.8.8 0 0 1-.768.8l-.12.002z" mask="url(#b)"/>
        </g>
    </g>
</svg>
