<svg xmlns="http://www.w3.org/2000/svg" xmlns:xlink="http://www.w3.org/1999/xlink" width="40" height="47" viewBox="0 0 40 47">
    <defs>
        <path id="a" d="M13.592 13.584V.001H.009v13.583z"/>
    </defs>
    <g fill="none" fill-rule="evenodd">
        <path fill="#D1232A" d="M12.18 10.616c-1.064 0-2.1.498-3.087 1.483-1.13 1.13-1.635 2.405-1.46 3.688.238 1.741 1.66 3.43 4.004 4.755l.906.514c3.477 1.98 6.482 3.69 7.839 2.333 1.478-1.478-.733-5.43-2.824-8.708-1.547-2.425-3.324-3.86-5.002-4.044a3.255 3.255 0 0 0-.376-.021m6.946 14.87c-2.033 0-4.571-1.445-7.374-3.04l-.9-.513c-2.79-1.576-4.496-3.682-4.802-5.93-.245-1.796.416-3.537 1.913-5.033 1.44-1.441 3.089-2.11 4.766-1.922 2.201.24 4.337 1.891 6.176 4.773 2.691 4.22 4.87 8.435 2.607 10.698-.682.682-1.485.966-2.386.966"/>
        <path fill="#D1232A" d="M23.325 27.13a.797.797 0 0 1-.566-.234l-2.441-2.442a.8.8 0 0 1 1.13-1.13l2.442 2.442a.8.8 0 0 1-.565 1.364"/>
        <g transform="translate(21.399 24.417)">
            <mask id="b" fill="#fff">
                <use xlink:href="#a"/>
            </mask>
            <path fill="#D1232A" d="M1.941 3.028c1.415 1.408 5.001 5.042 6.1 6.778.754 1.19 1.804 2.04 2.676 2.165.334.049.605-.023.823-.215a.815.815 0 0 1 .13-.093.777.777 0 0 1 .094-.131c.192-.219.263-.488.215-.823-.125-.872-.974-1.923-2.165-2.676-1.736-1.098-5.37-4.685-6.778-6.1L1.941 3.028zm8.975 10.556c-.139 0-.28-.01-.425-.031-1.336-.191-2.792-1.3-3.8-2.893C5.44 8.684.3 3.654.248 3.603a.798.798 0 0 1-.006-1.136L2.475.235A.797.797 0 0 1 3.04 0h.005a.8.8 0 0 1 .566.24c.051.052 5.08 5.19 7.057 6.442 1.594 1.008 2.703 2.464 2.893 3.8.114.804-.093 1.533-.6 2.106a.785.785 0 0 1-.2.164.793.793 0 0 1-.164.201 2.49 2.49 0 0 1-1.68.63z" mask="url(#b)"/>
        </g>
        <path fill="#D1232A" d="M32.02 35.748a.797.797 0 0 1-.565-.235l-1.37-1.37a.8.8 0 0 1 1.13-1.13l1.37 1.37a.8.8 0 0 1-.565 1.365M20.733 24.838a.8.8 0 0 1-.782-.64c-.66-3.244-3.632-6.565-6.453-9.386a9.819 9.819 0 0 0-4.908-2.646.8.8 0 0 1 .32-1.566 11.272 11.272 0 0 1 5.718 3.082c2.99 2.989 6.146 6.537 6.89 10.198a.8.8 0 0 1-.785.958"/>
        <path fill="#D1232A" d="M21.12 24.452a.821.821 0 0 1-.16-.015c-3.66-.744-7.209-3.9-10.198-6.89a11.26 11.26 0 0 1-3.081-5.717.8.8 0 1 1 1.565-.32 9.816 9.816 0 0 0 2.647 4.907c2.82 2.821 6.14 5.794 9.386 6.453a.8.8 0 0 1-.159 1.582"/>
    </g>
</svg>
