<svg xmlns="http://www.w3.org/2000/svg" xmlns:xlink="http://www.w3.org/1999/xlink" width="40" height="47" viewBox="0 0 40 47">
    <defs>
        <path id="a" d="M17.755.27v15.986H.941V.27h16.814z"/>
        <path id="c" d="M0 18.535V.771h15.279v17.764z"/>
    </defs>
    <g fill="none" fill-rule="evenodd">
        <g transform="translate(19 12.23)">
            <mask id="b" fill="#fff">
                <use xlink:href="#a"/>
            </mask>
            <path fill="#D1232A" d="M5.788 3.496c-3.354 2.505-4.04 7.011-2.396 9.215 1.647 2.204 6.162 2.822 9.516.318 3.354-2.505 4.041-7.01 2.396-9.215-1.648-2.204-6.162-2.82-9.516-.318m2.268 12.76c-2.486 0-4.746-.982-5.945-2.588-2.133-2.855-1.423-8.36 2.72-11.453 4.143-3.093 9.623-2.213 11.754.642 2.132 2.856 1.422 8.361-2.72 11.453a9.704 9.704 0 0 1-5.809 1.946" mask="url(#b)"/>
        </g>
        <path fill="#D1232A" d="M22.383 26.424a.8.8 0 0 1-.789-.938c.03-.172.794-4.232 5.304-5.204.29-.062.593-.118.91-.176 2.418-.445 4.92-.905 5.92-4.866a.8.8 0 0 1 1.551.391c-1.25 4.958-4.679 5.59-7.182 6.05-.3.054-.589.106-.862.166-3.47.747-4.059 3.883-4.065 3.915a.8.8 0 0 1-.787.661"/>
        <g transform="translate(3 6.23)">
            <mask id="d" fill="#fff">
                <use xlink:href="#c"/>
            </mask>
            <path fill="#D1232A" d="M1.932 11.333c1.184 4.018 5.171 6.229 7.807 5.452 1.294-.381 2.5-1.566 3.224-3.172a8.132 8.132 0 0 0 .383-5.637c-1.182-4.017-5.16-6.233-7.808-5.455-1.294.381-2.499 1.567-3.223 3.172a8.14 8.14 0 0 0-.383 5.64m6.707 7.202c-3.208 0-6.99-2.503-8.242-6.751a9.732 9.732 0 0 1 .46-6.748c.926-2.055 2.468-3.531 4.23-4.05 3.421-1.007 8.334 1.577 9.794 6.537a9.732 9.732 0 0 1-.46 6.748c-.927 2.055-2.469 3.531-4.23 4.049a5.473 5.473 0 0 1-1.552.215" mask="url(#d)"/>
        </g>
        <path fill="#D1232A" d="M13.371 24.016a.795.795 0 0 1-.402-.109c-.152-.089-3.716-2.23-3.055-6.828.043-.294.097-.602.152-.919.428-2.444.871-4.97-2.526-7.306a.8.8 0 1 1 .907-1.318c4.243 2.917 3.638 6.375 3.195 8.9-.053.301-.104.593-.144.872a5.228 5.228 0 0 0 2.282 5.22.8.8 0 0 1-.409 1.488M14.74 27.732c-4.167 0-7.41 3.17-7.425 5.911-.007 1.35.783 2.845 2.113 4a8.126 8.126 0 0 0 5.291 1.986h.041c4.167 0 7.41-3.169 7.424-5.912.007-1.349-.783-2.844-2.112-3.999a8.14 8.14 0 0 0-5.29-1.986h-.042zm.021 13.497h-.05A9.737 9.737 0 0 1 8.38 38.85c-1.702-1.477-2.674-3.378-2.664-5.215.02-3.563 3.923-7.524 9.074-7.503a9.741 9.741 0 0 1 6.332 2.378c1.702 1.478 2.673 3.378 2.663 5.215-.018 3.552-3.878 7.504-9.023 7.504z"/>
        <path fill="#D1232A" d="M18.75 35.41c-.893 0-1.892-.186-2.966-.684-.267-.124-.543-.262-.83-.405-2.19-1.098-4.456-2.234-7.628.317a.8.8 0 0 1-1.003-1.247c3.973-3.194 7.08-1.638 9.349-.501.27.136.532.268.786.385a5.16 5.16 0 0 0 5.584-.677.8.8 0 0 1 1.089 1.172c-.095.089-1.8 1.64-4.38 1.64"/>
    </g>
</svg>
